<svg width="1440" height="1024" viewBox="0 0 1440 1024" fill="none" xmlns="http://www.w3.org/2000/svg" xmlns:xlink="http://www.w3.org/1999/xlink">
<rect width="1440" height="1024" fill="#1E1E1E"/>
<g id="Desktop - 1">
<rect width="1440" height="1024" fill="#1E1E1E"/>
<g id="Group 3">
<g id="Group 2">
<g id="Group 1">
<rect id="image 2" x="360" y="209" width="546" height="546" fill="url(#pattern0_0_1)"/>
<path id="Vector 2" d="M630.594 733C776.981 669.302 855.805 549.868 827.184 336.761C753.993 321.867 664.845 300.229 630.594 274C600.566 298.355 516.705 317 435.881 336.761C408.677 525.397 476.231 670.239 630.594 733Z" fill="#82B5E4" stroke="black"/>
<circle id="Ellipse 1" cx="630" cy="501" r="323.5" fill="#4C53F7" stroke="black"/>
<path id="Ellipse 2" d="M905.5 503.5C905.5 558.941 874.274 609.179 823.698 645.576C773.122 681.973 703.227 704.5 626 704.5C548.773 704.5 478.878 681.973 428.302 645.576C377.726 609.179 346.5 558.941 346.5 503.5C346.5 448.059 377.726 397.821 428.302 361.424C478.878 325.027 548.773 302.5 626 302.5C703.227 302.5 773.122 325.027 823.698 361.424C874.274 397.821 905.5 448.059 905.5 503.5Z" fill="#9CA1D0" fill-opacity="0.62" stroke="black"/>
<path id="Security Guard" d="M479.572 266.083C476.193 266.068 473.497 265.037 471.486 262.988C469.495 260.939 468.507 258.255 468.521 254.935L468.532 252.535L476.632 252.57L476.621 254.97C476.617 255.87 476.874 256.601 477.392 257.164C477.909 257.706 478.648 257.979 479.608 257.983C480.568 257.988 481.309 257.721 481.832 257.183C482.354 256.625 482.617 255.897 482.621 254.997L482.641 250.377C482.644 249.857 482.626 249.447 482.587 249.146C482.548 248.846 482.439 248.606 482.26 248.425C482.101 248.244 481.812 248.083 481.392 247.941C480.993 247.779 480.414 247.587 479.655 247.363C476.878 246.511 474.732 245.792 473.214 245.205C471.697 244.599 470.61 243.954 469.953 243.271C469.296 242.588 468.899 241.706 468.764 240.626C468.649 239.525 468.595 238.055 468.604 236.215L468.63 230.215C468.645 226.875 469.656 224.199 471.665 222.188C473.694 220.157 476.399 219.149 479.778 219.164C483.178 219.179 485.874 220.211 487.865 222.259C489.856 224.288 490.844 226.972 490.83 230.312L490.819 232.712L482.719 232.677L482.73 230.277C482.734 229.377 482.477 228.656 481.959 228.113C481.442 227.551 480.703 227.268 479.743 227.264C478.783 227.259 478.042 227.536 477.519 228.094C476.997 228.632 476.734 229.35 476.73 230.25L476.703 236.25C476.701 236.77 476.719 237.18 476.758 237.481C476.797 237.781 476.896 238.021 477.055 238.202C477.234 238.383 477.533 238.554 477.953 238.716C478.372 238.858 478.951 239.04 479.69 239.264C482.467 240.116 484.613 240.845 486.131 241.452C487.648 242.039 488.735 242.673 489.392 243.356C490.049 244.039 490.435 244.931 490.551 246.031C490.686 247.112 490.749 248.572 490.741 250.412L490.721 255.032C490.707 258.352 489.695 261.028 487.686 263.059C485.677 265.09 482.972 266.098 479.572 266.083ZM506.504 266.022C504.364 266.012 502.506 265.544 500.93 264.617C499.374 263.67 498.17 262.365 497.317 260.701C496.464 259.037 496.043 257.096 496.052 254.876L496.107 242.516C496.116 240.296 496.555 238.358 497.422 236.701C498.29 235.025 499.505 233.73 501.069 232.817C502.653 231.904 504.515 231.452 506.655 231.462C509.875 231.476 512.421 232.507 514.292 234.555C516.183 236.584 517.121 239.268 517.107 242.608L517.071 250.708L502.611 250.644L502.641 243.744L509.601 243.775L509.609 241.975C509.613 241.075 509.356 240.354 508.839 239.812C508.321 239.249 507.582 238.966 506.622 238.962C505.662 238.958 504.921 239.234 504.399 239.792C503.876 240.33 503.613 241.049 503.609 241.949L503.55 255.508C503.546 256.408 503.803 257.14 504.32 257.702C504.838 258.244 505.577 258.517 506.537 258.522C507.497 258.526 508.238 258.259 508.76 257.721C509.283 257.164 509.546 256.435 509.55 255.535L509.555 254.335L517.055 254.368L517.052 254.968C517.038 258.288 516.076 260.964 514.167 262.995C512.278 265.027 509.724 266.036 506.504 266.022ZM532.519 266.136C530.379 266.126 528.521 265.658 526.945 264.731C525.389 263.784 524.185 262.479 523.332 260.815C522.48 259.152 522.058 257.21 522.068 254.99L522.122 242.63C522.132 240.41 522.57 238.472 523.438 236.816C524.305 235.139 525.521 233.845 527.085 232.932C528.669 232.019 530.531 231.567 532.671 231.576C535.891 231.59 538.436 232.621 540.307 234.67C542.198 236.698 543.137 239.382 543.122 242.722L543.119 243.322L535.619 243.289L535.625 242.089C535.629 241.189 535.372 240.468 534.854 239.926C534.337 239.363 533.598 239.08 532.638 239.076C531.678 239.072 530.937 239.349 530.414 239.906C529.892 240.444 529.629 241.163 529.625 242.063L529.565 255.623C529.561 256.523 529.818 257.254 530.336 257.816C530.853 258.358 531.592 258.632 532.552 258.636C533.512 258.64 534.253 258.373 534.775 257.836C535.298 257.278 535.561 256.549 535.565 255.649L535.57 254.449L543.07 254.482L543.068 255.082C543.053 258.402 542.091 261.078 540.182 263.109C538.293 265.141 535.739 266.15 532.519 266.136ZM555.794 266.238C554.494 266.232 553.235 265.937 552.018 265.351C550.821 264.766 549.835 263.722 549.062 262.218C548.288 260.695 547.908 258.523 547.92 255.703L548.023 232.424L555.522 232.456L555.42 255.736C555.416 256.636 555.673 257.367 556.191 257.93C556.708 258.472 557.447 258.745 558.407 258.749C559.367 258.754 560.108 258.487 560.631 257.949C561.153 257.391 561.416 256.663 561.42 255.763L561.522 232.483L569.022 232.516L568.877 265.515L561.377 265.482L561.4 260.443L562.712 262.188C562.086 263.466 561.192 264.462 560.029 265.177C558.886 265.892 557.474 266.245 555.794 266.238ZM575.951 265.546L576.096 232.547L583.596 232.58L583.572 237.98L582.199 236.354C582.865 234.937 583.8 233.891 585.003 233.216C586.206 232.521 587.597 232.177 589.177 232.184L590.677 232.191L590.644 239.691L586.564 239.673C585.604 239.669 584.864 239.885 584.342 240.323C583.82 240.741 583.557 241.4 583.553 242.3L583.451 265.579L575.951 265.546ZM594.056 265.626L594.201 232.626L601.701 232.659L601.556 265.659L594.056 265.626ZM594.212 230.226L594.246 222.426L601.746 222.459L601.711 230.259L594.212 230.226ZM620.944 266.164C617.744 266.15 615.198 265.219 613.306 263.37C611.414 261.522 610.475 258.938 610.49 255.618L610.56 239.598L605.16 239.574L605.191 232.675L610.591 232.698L610.625 224.898L618.125 224.931L618.091 232.731L624.391 232.759L624.36 239.659L618.06 239.631L617.99 255.651C617.986 256.551 618.243 257.282 618.76 257.844C619.278 258.387 620.017 258.66 620.977 258.664L624.277 258.679L624.244 266.179L620.944 266.164ZM631.686 276.591L634.613 265.804L625.698 232.765L633.858 232.8L639.334 256.525L637.714 256.518L643.158 232.841L651.318 232.877L639.246 276.624L631.686 276.591ZM680.331 266.965C676.951 266.95 674.256 265.918 672.245 263.869C670.254 261.82 669.265 259.136 669.28 255.816L669.388 231.096C669.403 227.756 670.415 225.081 672.424 223.07C674.453 221.039 677.157 220.03 680.537 220.045C683.937 220.06 686.633 221.092 688.624 223.141C690.615 225.17 691.603 227.854 691.588 231.194L691.578 233.594L683.478 233.558L683.488 231.158C683.492 230.258 683.235 229.537 682.718 228.995C682.2 228.433 681.461 228.149 680.501 228.145C679.541 228.141 678.8 228.418 678.278 228.975C677.755 229.513 677.492 230.232 677.488 231.132L677.38 255.852C677.376 256.752 677.633 257.483 678.15 258.045C678.668 258.587 679.407 258.861 680.367 258.865C681.327 258.869 682.068 258.602 682.59 258.065C683.113 257.507 683.376 256.778 683.38 255.878L683.398 251.618L679.618 251.602L679.654 243.502L691.534 243.554L691.48 255.914C691.465 259.234 690.453 261.909 688.444 263.94C686.435 265.972 683.731 266.98 680.331 266.965ZM705.734 266.896C704.434 266.891 703.175 266.595 701.958 266.01C700.76 265.424 699.775 264.38 699.002 262.877C698.228 261.353 697.848 259.182 697.86 256.362L697.962 233.082L705.462 233.115L705.36 256.395C705.356 257.295 705.613 258.026 706.131 258.588C706.648 259.13 707.387 259.404 708.347 259.408C709.307 259.412 710.048 259.145 710.571 258.607C711.093 258.05 711.356 257.321 711.36 256.421L711.462 233.141L718.962 233.174L718.817 266.174L711.317 266.141L711.34 261.101L712.652 262.847C712.026 264.124 711.132 265.12 709.969 265.835C708.826 266.55 707.414 266.904 705.734 266.896ZM732.367 267.013C729.667 267.001 727.611 266.152 726.198 264.466C724.806 262.76 724.115 260.607 724.127 258.007C724.133 256.507 724.359 255.238 724.803 254.2C725.248 253.162 725.832 252.294 726.555 251.598C727.298 250.881 728.121 250.274 729.023 249.778C730.045 249.203 731.098 248.728 732.179 248.352C733.261 247.957 734.263 247.571 735.184 247.195C736.106 246.799 736.848 246.323 737.411 245.765C737.993 245.208 738.286 244.479 738.29 243.579L738.293 242.979C738.297 242.079 738.04 241.358 737.522 240.816C737.005 240.253 736.266 239.97 735.306 239.966C734.346 239.962 733.605 240.238 733.082 240.796C732.56 241.334 732.297 242.053 732.293 242.953L732.285 244.753L724.785 244.72L724.79 243.52C724.805 240.18 725.767 237.504 727.676 235.492C729.585 233.461 732.139 232.452 735.339 232.466C737.479 232.475 739.327 232.944 740.883 233.87C742.459 234.797 743.673 236.103 744.526 237.786C745.378 239.45 745.8 241.392 745.79 243.612L745.691 266.292L738.191 266.259L738.213 261.099L739.526 262.785C738.9 264.162 737.965 265.218 736.722 265.952C735.499 266.667 734.047 267.021 732.367 267.013ZM734.858 260.124C735.698 260.128 736.469 259.881 737.171 259.384C737.873 258.887 738.227 257.999 738.233 256.719L738.253 252.099C737.731 252.557 737.089 252.914 736.328 253.171C735.567 253.407 734.786 253.724 733.984 254.12C733.182 254.497 732.59 254.924 732.208 255.402C731.826 255.861 731.634 256.43 731.631 257.11C731.627 257.89 731.894 258.591 732.432 259.213C732.969 259.816 733.778 260.119 734.858 260.124ZM752.316 266.321L752.461 233.321L759.961 233.354L759.937 238.754L758.565 237.128C759.231 235.711 760.165 234.665 761.368 233.99C762.571 233.296 763.963 232.952 765.543 232.959L767.043 232.965L767.01 240.465L762.93 240.447C761.97 240.443 761.229 240.66 760.707 241.097C760.185 241.515 759.922 242.174 759.918 243.074L759.816 266.354L752.316 266.321ZM777.738 267.212C776.438 267.207 775.179 266.911 773.962 266.326C772.764 265.741 771.779 264.696 771.006 263.193C770.232 261.669 769.852 259.498 769.864 256.678L769.924 243.118C769.936 240.298 770.336 238.13 771.122 236.613C771.909 235.097 772.904 234.061 774.106 233.506C775.329 232.932 776.59 232.647 777.89 232.653C779.57 232.66 780.978 233.026 782.115 233.751C783.272 234.456 784.158 235.46 784.772 236.763L783.444 238.497L783.519 221.457L791.019 221.49L790.821 266.49L783.321 266.457L783.344 261.417L784.656 263.163C784.03 264.44 783.136 265.436 781.973 266.151C780.83 266.866 779.418 267.22 777.738 267.212ZM780.351 259.724C781.311 259.728 782.052 259.461 782.575 258.924C783.097 258.366 783.36 257.637 783.364 256.737L783.424 243.177C783.428 242.277 783.171 241.556 782.653 241.014C782.136 240.452 781.397 240.168 780.437 240.164C779.477 240.16 778.736 240.437 778.213 240.994C777.691 241.532 777.428 242.251 777.424 243.151L777.364 256.711C777.36 257.611 777.617 258.342 778.135 258.904C778.652 259.446 779.391 259.72 780.351 259.724Z" fill="white"/>
<g id="Group 4">
<g id="Vector 1" filter="url(#filter0_ddddd_0_1)">
<path d="M630.5 748.5C786.5 680.5 870.5 553 840 325.5C762.002 309.6 667 286.5 630.5 258.5C598.5 284.5 509.131 304.404 423 325.5C394.01 526.876 466 681.5 630.5 748.5Z" fill="#4C78EA"/>
<path d="M630.5 748.5C786.5 680.5 870.5 553 840 325.5C762.002 309.6 667 286.5 630.5 258.5C598.5 284.5 509.131 304.404 423 325.5C394.01 526.876 466 681.5 630.5 748.5Z" stroke="black"/>
</g>
</g>
<path id="Vector 3" d="M437 339C516.491 320.909 559.663 307.959 633.5 278.5L633 730C494 688 405.5 531.5 437 339Z" fill="#82B5E4" stroke="black"/>
<path id="Vector 6" d="M914.5 658.5C701.151 750.935 565.292 749.834 349.5 658.5C415.808 764.598 498 819.5 643 826.5C772.221 809.674 840.314 763.621 914.5 658.5Z" fill="#3E77E4" stroke="black"/>
<g id="Group 5">
<g id="Group 3_2">
<g id="Group 2_2">
<g id="Group 1_2">
<g id="Group 4_2">
<path id="G" d="M632.8 468.2H731.6V608.2C716.133 613.267 700.533 617 684.8 619.4C669.067 621.8 651.2 623 631.2 623C601.6 623 576.667 617.133 556.4 605.4C536.133 593.4 520.667 576.467 510 554.6C499.6 532.467 494.4 506.333 494.4 476.2C494.4 446.333 500.267 420.467 512 398.6C523.733 376.733 540.533 359.8 562.4 347.8C584.533 335.533 611.2 329.4 642.4 329.4C658.4 329.4 673.467 330.867 687.6 333.8C702 336.733 715.333 340.867 727.6 346.2L714 377.4C703.867 372.867 692.4 369 679.6 365.8C667.067 362.6 654 361 640.4 361C617.733 361 598.267 365.667 582 375C565.733 384.333 553.333 397.667 544.8 415C536.267 432.067 532 452.467 532 476.2C532 498.867 535.6 519 542.8 536.6C550.267 553.933 561.867 567.533 577.6 577.4C593.333 587 614 591.8 639.6 591.8C648.133 591.8 655.6 591.533 662 591C668.667 590.2 674.667 589.267 680 588.2C685.6 587.133 690.8 586.067 695.6 585V500.2H632.8V468.2Z" fill="#F4DDDD"/>
</g>
</g>
</g>
</g>
</g>
<path id="Vector 7" d="M429.5 754L396.5 681L445 720.5H526L628 776.5L737 720.5L800.5 734.5L867 681L800.5 776.5L737 720.5L628 824L526 720.5L429.5 754Z" fill="#3949D4"/>
</g>
</g>
</g>
</g>
<defs>
<pattern id="pattern0_0_1" patternContentUnits="objectBoundingBox" width="1" height="1">
<use xlink:href="#image0_0_1" transform="scale(0.000520833)"/>
</pattern>
<filter id="filter0_ddddd_0_1" x="412.233" y="257.863" width="438.465" height="499.18" filterUnits="userSpaceOnUse" color-interpolation-filters="sRGB">
<feFlood flood-opacity="0" result="BackgroundImageFix"/>
<feColorMatrix in="SourceAlpha" type="matrix" values="0 0 0 0 0 0 0 0 0 0 0 0 0 0 0 0 0 0 127 0" result="hardAlpha"/>
<feOffset dy="4"/>
<feGaussianBlur stdDeviation="2"/>
<feComposite in2="hardAlpha" operator="out"/>
<feColorMatrix type="matrix" values="0 0 0 0 0 0 0 0 0 0 0 0 0 0 0 0 0 0 0.25 0"/>
<feBlend mode="normal" in2="BackgroundImageFix" result="effect1_dropShadow_0_1"/>
<feColorMatrix in="SourceAlpha" type="matrix" values="0 0 0 0 0 0 0 0 0 0 0 0 0 0 0 0 0 0 127 0" result="hardAlpha"/>
<feOffset dy="4"/>
<feGaussianBlur stdDeviation="2"/>
<feComposite in2="hardAlpha" operator="out"/>
<feColorMatrix type="matrix" values="0 0 0 0 0 0 0 0 0 0 0 0 0 0 0 0 0 0 0.25 0"/>
<feBlend mode="normal" in2="effect1_dropShadow_0_1" result="effect2_dropShadow_0_1"/>
<feColorMatrix in="SourceAlpha" type="matrix" values="0 0 0 0 0 0 0 0 0 0 0 0 0 0 0 0 0 0 127 0" result="hardAlpha"/>
<feOffset dy="4"/>
<feGaussianBlur stdDeviation="2"/>
<feComposite in2="hardAlpha" operator="out"/>
<feColorMatrix type="matrix" values="0 0 0 0 0 0 0 0 0 0 0 0 0 0 0 0 0 0 0.25 0"/>
<feBlend mode="normal" in2="effect2_dropShadow_0_1" result="effect3_dropShadow_0_1"/>
<feColorMatrix in="SourceAlpha" type="matrix" values="0 0 0 0 0 0 0 0 0 0 0 0 0 0 0 0 0 0 127 0" result="hardAlpha"/>
<feOffset dy="4"/>
<feGaussianBlur stdDeviation="2"/>
<feComposite in2="hardAlpha" operator="out"/>
<feColorMatrix type="matrix" values="0 0 0 0 0 0 0 0 0 0 0 0 0 0 0 0 0 0 0.25 0"/>
<feBlend mode="normal" in2="effect3_dropShadow_0_1" result="effect4_dropShadow_0_1"/>
<feColorMatrix in="SourceAlpha" type="matrix" values="0 0 0 0 0 0 0 0 0 0 0 0 0 0 0 0 0 0 127 0" result="hardAlpha"/>
<feOffset dy="4"/>
<feGaussianBlur stdDeviation="2"/>
<feComposite in2="hardAlpha" operator="out"/>
<feColorMatrix type="matrix" values="0 0 0 0 0 0 0 0 0 0 0 0 0 0 0 0 0 0 0.25 0"/>
<feBlend mode="normal" in2="effect4_dropShadow_0_1" result="effect5_dropShadow_0_1"/>
<feBlend mode="normal" in="SourceGraphic" in2="effect5_dropShadow_0_1" result="shape"/>
</filter>
</defs>
</svg>
