<svg width="1440" height="1024" viewBox="0 0 1440 1024" fill="none" xmlns="http://www.w3.org/2000/svg">
<rect width="1440" height="1024" fill="#1E1E1E"/>
<g id="Desktop - 1">
<rect width="1440" height="1024" fill="#1E1E1E"/>
<g id="Group 3">
<g id="Group 1">
<path id="Vector 2" d="M593.594 804C739.981 740.302 818.805 620.868 790.184 407.761C716.993 392.867 627.845 371.229 593.594 345C563.566 369.355 479.705 388 398.881 407.761C371.677 596.397 439.231 741.239 593.594 804Z" fill="#82B5E4" stroke="black"/>
<circle id="Ellipse 1" cx="593" cy="572" r="323.5" fill="#4C53F7" stroke="black"/>
<path id="Ellipse 2" d="M868.5 574.5C868.5 629.941 837.274 680.179 786.698 716.576C736.122 752.973 666.227 775.5 589 775.5C511.773 775.5 441.878 752.973 391.302 716.576C340.726 680.179 309.5 629.941 309.5 574.5C309.5 519.059 340.726 468.821 391.302 432.424C441.878 396.027 511.773 373.5 589 373.5C666.227 373.5 736.122 396.027 786.698 432.424C837.274 468.821 868.5 519.059 868.5 574.5Z" fill="#9CA1D0" fill-opacity="0.62" stroke="black"/>
<path id="Security Guard" d="M442.572 337.083C439.193 337.068 436.497 336.037 434.486 333.988C432.495 331.939 431.507 329.255 431.521 325.935L431.532 323.535L439.632 323.57L439.621 325.97C439.617 326.87 439.874 327.601 440.392 328.164C440.909 328.706 441.648 328.979 442.608 328.983C443.568 328.988 444.309 328.721 444.832 328.183C445.354 327.625 445.617 326.897 445.621 325.997L445.641 321.377C445.644 320.857 445.626 320.447 445.587 320.146C445.548 319.846 445.439 319.606 445.26 319.425C445.101 319.244 444.812 319.083 444.392 318.941C443.993 318.779 443.414 318.587 442.655 318.363C439.878 317.511 437.732 316.792 436.214 316.205C434.697 315.599 433.61 314.954 432.953 314.271C432.296 313.588 431.899 312.706 431.764 311.626C431.649 310.525 431.595 309.055 431.604 307.215L431.63 301.215C431.645 297.875 432.656 295.199 434.665 293.188C436.694 291.157 439.399 290.149 442.778 290.164C446.178 290.179 448.874 291.211 450.865 293.259C452.856 295.288 453.844 297.972 453.83 301.312L453.819 303.712L445.719 303.677L445.73 301.277C445.734 300.377 445.477 299.656 444.959 299.113C444.442 298.551 443.703 298.268 442.743 298.264C441.783 298.259 441.042 298.536 440.519 299.094C439.997 299.632 439.734 300.35 439.73 301.25L439.703 307.25C439.701 307.77 439.719 308.18 439.758 308.481C439.797 308.781 439.896 309.021 440.055 309.202C440.234 309.383 440.533 309.554 440.953 309.716C441.372 309.858 441.951 310.04 442.69 310.264C445.467 311.116 447.613 311.845 449.131 312.452C450.648 313.039 451.735 313.673 452.392 314.356C453.049 315.039 453.435 315.931 453.551 317.031C453.686 318.112 453.749 319.572 453.741 321.412L453.721 326.032C453.707 329.352 452.695 332.028 450.686 334.059C448.677 336.09 445.972 337.098 442.572 337.083ZM469.504 337.022C467.364 337.012 465.506 336.544 463.93 335.617C462.374 334.67 461.17 333.365 460.317 331.701C459.464 330.037 459.043 328.096 459.052 325.876L459.107 313.516C459.116 311.296 459.555 309.358 460.422 307.701C461.29 306.025 462.505 304.73 464.069 303.817C465.653 302.904 467.515 302.452 469.655 302.462C472.875 302.476 475.421 303.507 477.292 305.555C479.183 307.584 480.121 310.268 480.107 313.608L480.071 321.708L465.611 321.644L465.641 314.744L472.601 314.775L472.609 312.975C472.613 312.075 472.356 311.354 471.839 310.812C471.321 310.249 470.582 309.966 469.622 309.962C468.662 309.958 467.921 310.234 467.399 310.792C466.876 311.33 466.613 312.049 466.609 312.949L466.55 326.508C466.546 327.408 466.803 328.14 467.32 328.702C467.838 329.244 468.577 329.517 469.537 329.522C470.497 329.526 471.238 329.259 471.76 328.721C472.283 328.164 472.546 327.435 472.55 326.535L472.555 325.335L480.055 325.368L480.052 325.968C480.038 329.288 479.076 331.964 477.167 333.995C475.278 336.027 472.724 337.036 469.504 337.022ZM495.519 337.136C493.379 337.126 491.521 336.658 489.945 335.731C488.389 334.784 487.185 333.479 486.332 331.815C485.48 330.152 485.058 328.21 485.068 325.99L485.122 313.63C485.132 311.41 485.57 309.472 486.438 307.816C487.305 306.139 488.521 304.845 490.085 303.932C491.669 303.019 493.531 302.567 495.671 302.576C498.891 302.59 501.436 303.621 503.307 305.67C505.198 307.698 506.137 310.382 506.122 313.722L506.119 314.322L498.619 314.289L498.625 313.089C498.629 312.189 498.372 311.468 497.854 310.926C497.337 310.363 496.598 310.08 495.638 310.076C494.678 310.072 493.937 310.349 493.414 310.906C492.892 311.444 492.629 312.163 492.625 313.063L492.565 326.623C492.561 327.523 492.818 328.254 493.336 328.816C493.853 329.358 494.592 329.632 495.552 329.636C496.512 329.64 497.253 329.373 497.775 328.836C498.298 328.278 498.561 327.549 498.565 326.649L498.57 325.449L506.07 325.482L506.068 326.082C506.053 329.402 505.091 332.078 503.182 334.109C501.293 336.141 498.739 337.15 495.519 337.136ZM518.794 337.238C517.494 337.232 516.235 336.937 515.018 336.351C513.821 335.766 512.835 334.722 512.062 333.218C511.288 331.695 510.908 329.523 510.92 326.703L511.023 303.424L518.522 303.456L518.42 326.736C518.416 327.636 518.673 328.367 519.191 328.93C519.708 329.472 520.447 329.745 521.407 329.749C522.367 329.754 523.108 329.487 523.631 328.949C524.153 328.391 524.416 327.663 524.42 326.763L524.522 303.483L532.022 303.516L531.877 336.515L524.377 336.482L524.4 331.443L525.712 333.188C525.086 334.466 524.192 335.462 523.029 336.177C521.886 336.892 520.474 337.245 518.794 337.238ZM538.951 336.546L539.096 303.547L546.596 303.58L546.572 308.98L545.199 307.354C545.865 305.937 546.8 304.891 548.003 304.216C549.206 303.521 550.597 303.177 552.177 303.184L553.677 303.191L553.644 310.691L549.564 310.673C548.604 310.669 547.864 310.885 547.342 311.323C546.82 311.741 546.557 312.4 546.553 313.3L546.451 336.579L538.951 336.546ZM557.056 336.626L557.201 303.626L564.701 303.659L564.556 336.659L557.056 336.626ZM557.212 301.226L557.246 293.426L564.746 293.459L564.711 301.259L557.212 301.226ZM583.944 337.164C580.744 337.15 578.198 336.219 576.306 334.37C574.414 332.522 573.475 329.938 573.49 326.618L573.56 310.598L568.16 310.574L568.191 303.675L573.591 303.698L573.625 295.898L581.125 295.931L581.091 303.731L587.391 303.759L587.36 310.659L581.06 310.631L580.99 326.651C580.986 327.551 581.243 328.282 581.76 328.844C582.278 329.387 583.017 329.66 583.977 329.664L587.277 329.679L587.244 337.179L583.944 337.164ZM594.686 347.591L597.613 336.804L588.698 303.765L596.858 303.8L602.334 327.525L600.714 327.518L606.158 303.841L614.318 303.877L602.246 347.624L594.686 347.591ZM643.331 337.965C639.951 337.95 637.256 336.918 635.245 334.869C633.254 332.82 632.265 330.136 632.28 326.816L632.388 302.096C632.403 298.756 633.415 296.081 635.424 294.07C637.453 292.039 640.157 291.03 643.537 291.045C646.937 291.06 649.633 292.092 651.624 294.141C653.615 296.17 654.603 298.854 654.588 302.194L654.578 304.594L646.478 304.558L646.488 302.158C646.492 301.258 646.235 300.537 645.718 299.995C645.2 299.433 644.461 299.149 643.501 299.145C642.541 299.141 641.8 299.418 641.278 299.975C640.755 300.513 640.492 301.232 640.488 302.132L640.38 326.852C640.376 327.752 640.633 328.483 641.15 329.045C641.668 329.587 642.407 329.861 643.367 329.865C644.327 329.869 645.068 329.602 645.59 329.065C646.113 328.507 646.376 327.778 646.38 326.878L646.398 322.618L642.618 322.602L642.654 314.502L654.534 314.554L654.48 326.914C654.465 330.234 653.453 332.909 651.444 334.94C649.435 336.972 646.731 337.98 643.331 337.965ZM668.734 337.896C667.434 337.891 666.175 337.595 664.958 337.01C663.76 336.424 662.775 335.38 662.002 333.877C661.228 332.353 660.848 330.182 660.86 327.362L660.962 304.082L668.462 304.115L668.36 327.395C668.356 328.295 668.613 329.026 669.131 329.588C669.648 330.13 670.387 330.404 671.347 330.408C672.307 330.412 673.048 330.145 673.571 329.607C674.093 329.05 674.356 328.321 674.36 327.421L674.462 304.141L681.962 304.174L681.817 337.174L674.317 337.141L674.34 332.101L675.652 333.847C675.026 335.124 674.132 336.12 672.969 336.835C671.826 337.55 670.414 337.904 668.734 337.896ZM695.367 338.013C692.667 338.001 690.611 337.152 689.198 335.466C687.806 333.76 687.115 331.607 687.127 329.007C687.133 327.507 687.359 326.238 687.803 325.2C688.248 324.162 688.832 323.294 689.555 322.598C690.298 321.881 691.121 321.274 692.023 320.778C693.045 320.203 694.098 319.728 695.179 319.352C696.261 318.957 697.263 318.571 698.184 318.195C699.106 317.799 699.848 317.323 700.411 316.765C700.993 316.208 701.286 315.479 701.29 314.579L701.293 313.979C701.297 313.079 701.04 312.358 700.522 311.816C700.005 311.253 699.266 310.97 698.306 310.966C697.346 310.962 696.605 311.238 696.082 311.796C695.56 312.334 695.297 313.053 695.293 313.953L695.285 315.753L687.785 315.72L687.79 314.52C687.805 311.18 688.767 308.504 690.676 306.492C692.585 304.461 695.139 303.452 698.339 303.466C700.479 303.475 702.327 303.944 703.883 304.87C705.459 305.797 706.673 307.103 707.526 308.786C708.378 310.45 708.8 312.392 708.79 314.612L708.691 337.292L701.191 337.259L701.213 332.099L702.526 333.785C701.9 335.162 700.965 336.218 699.722 336.952C698.499 337.667 697.047 338.021 695.367 338.013ZM697.858 331.124C698.698 331.128 699.469 330.881 700.171 330.384C700.873 329.887 701.227 328.999 701.233 327.719L701.253 323.099C700.731 323.557 700.089 323.914 699.328 324.171C698.567 324.407 697.786 324.724 696.984 325.12C696.182 325.497 695.59 325.924 695.208 326.402C694.826 326.861 694.634 327.43 694.631 328.11C694.627 328.89 694.894 329.591 695.432 330.213C695.969 330.816 696.778 331.119 697.858 331.124ZM715.316 337.321L715.461 304.321L722.961 304.354L722.937 309.754L721.565 308.128C722.231 306.711 723.165 305.665 724.368 304.99C725.571 304.296 726.963 303.952 728.543 303.959L730.043 303.965L730.01 311.465L725.93 311.447C724.97 311.443 724.229 311.66 723.707 312.097C723.185 312.515 722.922 313.174 722.918 314.074L722.816 337.354L715.316 337.321ZM740.738 338.212C739.438 338.207 738.179 337.911 736.962 337.326C735.764 336.741 734.779 335.696 734.006 334.193C733.232 332.669 732.852 330.498 732.864 327.678L732.924 314.118C732.936 311.298 733.336 309.13 734.122 307.613C734.909 306.097 735.904 305.061 737.106 304.506C738.329 303.932 739.59 303.647 740.89 303.653C742.57 303.66 743.978 304.026 745.115 304.751C746.272 305.456 747.158 306.46 747.772 307.763L746.444 309.497L746.519 292.457L754.019 292.49L753.821 337.49L746.321 337.457L746.344 332.417L747.656 334.163C747.03 335.44 746.136 336.436 744.973 337.151C743.83 337.866 742.418 338.22 740.738 338.212ZM743.351 330.724C744.311 330.728 745.052 330.461 745.575 329.924C746.097 329.366 746.36 328.637 746.364 327.737L746.424 314.177C746.428 313.277 746.171 312.556 745.653 312.014C745.136 311.452 744.397 311.168 743.437 311.164C742.477 311.16 741.736 311.437 741.213 311.994C740.691 312.532 740.428 313.251 740.424 314.151L740.364 327.711C740.36 328.611 740.617 329.342 741.135 329.904C741.652 330.446 742.391 330.72 743.351 330.724Z" fill="white"/>
<g id="Group 4">
<g id="Vector 1" filter="url(#filter0_ddddd_0_1)">
<path d="M593.5 819.5C749.5 751.5 833.5 624 803 396.5C725.002 380.6 630 357.5 593.5 329.5C561.5 355.5 472.131 375.404 386 396.5C357.01 597.876 429 752.5 593.5 819.5Z" fill="#4C78EA"/>
<path d="M593.5 819.5C749.5 751.5 833.5 624 803 396.5C725.002 380.6 630 357.5 593.5 329.5C561.5 355.5 472.131 375.404 386 396.5C357.01 597.876 429 752.5 593.5 819.5Z" stroke="black"/>
</g>
</g>
<path id="Vector 3" d="M400 410C479.491 391.909 522.663 378.959 596.5 349.5L596 801C457 759 368.5 602.5 400 410Z" fill="#82B5E4" stroke="black"/>
<path id="Vector 6" d="M877.5 729.5C664.151 821.935 528.292 820.834 312.5 729.5C378.808 835.598 461 890.5 606 897.5C735.221 880.674 803.314 834.621 877.5 729.5Z" fill="#3E77E4" stroke="black"/>
<g id="Group 5">
<g id="Group 3_2">
<g id="Group 2">
<g id="Group 1_2">
<g id="Group 4_2">
<path id="G" d="M595.8 539.2H694.6V679.2C679.133 684.267 663.533 688 647.8 690.4C632.067 692.8 614.2 694 594.2 694C564.6 694 539.667 688.133 519.4 676.4C499.133 664.4 483.667 647.467 473 625.6C462.6 603.467 457.4 577.333 457.4 547.2C457.4 517.333 463.267 491.467 475 469.6C486.733 447.733 503.533 430.8 525.4 418.8C547.533 406.533 574.2 400.4 605.4 400.4C621.4 400.4 636.467 401.867 650.6 404.8C665 407.733 678.333 411.867 690.6 417.2L677 448.4C666.867 443.867 655.4 440 642.6 436.8C630.067 433.6 617 432 603.4 432C580.733 432 561.267 436.667 545 446C528.733 455.333 516.333 468.667 507.8 486C499.267 503.067 495 523.467 495 547.2C495 569.867 498.6 590 505.8 607.6C513.267 624.933 524.867 638.533 540.6 648.4C556.333 658 577 662.8 602.6 662.8C611.133 662.8 618.6 662.533 625 662C631.667 661.2 637.667 660.267 643 659.2C648.6 658.133 653.8 657.067 658.6 656V571.2H595.8V539.2Z" fill="#F4DDDD"/>
</g>
</g>
</g>
</g>
</g>
<path id="Vector 7" d="M392.5 825L359.5 752L408 791.5H489L591 847.5L700 791.5L763.5 805.5L830 752L763.5 847.5L700 791.5L591 895L489 791.5L392.5 825Z" fill="#3949D4"/>
</g>
</g>
</g>
<defs>
<filter id="filter0_ddddd_0_1" x="375.233" y="328.863" width="438.465" height="499.18" filterUnits="userSpaceOnUse" color-interpolation-filters="sRGB">
<feFlood flood-opacity="0" result="BackgroundImageFix"/>
<feColorMatrix in="SourceAlpha" type="matrix" values="0 0 0 0 0 0 0 0 0 0 0 0 0 0 0 0 0 0 127 0" result="hardAlpha"/>
<feOffset dy="4"/>
<feGaussianBlur stdDeviation="2"/>
<feComposite in2="hardAlpha" operator="out"/>
<feColorMatrix type="matrix" values="0 0 0 0 0 0 0 0 0 0 0 0 0 0 0 0 0 0 0.25 0"/>
<feBlend mode="normal" in2="BackgroundImageFix" result="effect1_dropShadow_0_1"/>
<feColorMatrix in="SourceAlpha" type="matrix" values="0 0 0 0 0 0 0 0 0 0 0 0 0 0 0 0 0 0 127 0" result="hardAlpha"/>
<feOffset dy="4"/>
<feGaussianBlur stdDeviation="2"/>
<feComposite in2="hardAlpha" operator="out"/>
<feColorMatrix type="matrix" values="0 0 0 0 0 0 0 0 0 0 0 0 0 0 0 0 0 0 0.25 0"/>
<feBlend mode="normal" in2="effect1_dropShadow_0_1" result="effect2_dropShadow_0_1"/>
<feColorMatrix in="SourceAlpha" type="matrix" values="0 0 0 0 0 0 0 0 0 0 0 0 0 0 0 0 0 0 127 0" result="hardAlpha"/>
<feOffset dy="4"/>
<feGaussianBlur stdDeviation="2"/>
<feComposite in2="hardAlpha" operator="out"/>
<feColorMatrix type="matrix" values="0 0 0 0 0 0 0 0 0 0 0 0 0 0 0 0 0 0 0.25 0"/>
<feBlend mode="normal" in2="effect2_dropShadow_0_1" result="effect3_dropShadow_0_1"/>
<feColorMatrix in="SourceAlpha" type="matrix" values="0 0 0 0 0 0 0 0 0 0 0 0 0 0 0 0 0 0 127 0" result="hardAlpha"/>
<feOffset dy="4"/>
<feGaussianBlur stdDeviation="2"/>
<feComposite in2="hardAlpha" operator="out"/>
<feColorMatrix type="matrix" values="0 0 0 0 0 0 0 0 0 0 0 0 0 0 0 0 0 0 0.25 0"/>
<feBlend mode="normal" in2="effect3_dropShadow_0_1" result="effect4_dropShadow_0_1"/>
<feColorMatrix in="SourceAlpha" type="matrix" values="0 0 0 0 0 0 0 0 0 0 0 0 0 0 0 0 0 0 127 0" result="hardAlpha"/>
<feOffset dy="4"/>
<feGaussianBlur stdDeviation="2"/>
<feComposite in2="hardAlpha" operator="out"/>
<feColorMatrix type="matrix" values="0 0 0 0 0 0 0 0 0 0 0 0 0 0 0 0 0 0 0.25 0"/>
<feBlend mode="normal" in2="effect4_dropShadow_0_1" result="effect5_dropShadow_0_1"/>
<feBlend mode="normal" in="SourceGraphic" in2="effect5_dropShadow_0_1" result="shape"/>
</filter>
</defs>
</svg>
