<svg width="682" height="716" viewBox="0 0 682 716" fill="none" xmlns="http://www.w3.org/2000/svg">
<rect width="682" height="716" fill="#1E1E1E"/>
<g id="Desktop - 1">
<g id="Group 3">
<g id="Group 1">
<path id="Vector 2" d="M336.594 594C482.981 530.302 561.805 410.868 533.184 197.761C459.993 182.867 370.845 161.229 336.594 135C306.566 159.355 222.705 178 141.881 197.761C114.677 386.397 182.231 531.239 336.594 594Z" fill="#82B5E4" stroke="black"/>
<circle id="Ellipse 1" cx="336" cy="362" r="323.5" fill="#2D6EB9" stroke="black"/>
<path id="Ellipse 2" d="M611.5 364.5C611.5 419.941 580.274 470.179 529.698 506.576C479.122 542.973 409.227 565.5 332 565.5C254.773 565.5 184.878 542.973 134.302 506.576C83.7255 470.179 52.5 419.941 52.5 364.5C52.5 309.059 83.7255 258.821 134.302 222.424C184.878 186.027 254.773 163.5 332 163.5C409.227 163.5 479.122 186.027 529.698 222.424C580.274 258.821 611.5 309.059 611.5 364.5Z" fill="#4A94A5" fill-opacity="0.62" stroke="black"/>
<path id="Security Guard" d="M185.572 127.083C182.193 127.068 179.497 126.037 177.486 123.988C175.495 121.939 174.507 119.255 174.521 115.935L174.532 113.535L182.632 113.57L182.621 115.97C182.617 116.87 182.874 117.601 183.392 118.164C183.909 118.706 184.648 118.979 185.608 118.983C186.568 118.988 187.309 118.721 187.832 118.183C188.354 117.625 188.617 116.897 188.621 115.997L188.641 111.377C188.644 110.857 188.626 110.447 188.587 110.146C188.548 109.846 188.439 109.606 188.26 109.425C188.101 109.244 187.812 109.083 187.392 108.941C186.993 108.779 186.414 108.587 185.655 108.363C182.878 107.511 180.732 106.792 179.214 106.205C177.697 105.599 176.61 104.954 175.953 104.271C175.296 103.588 174.899 102.706 174.764 101.626C174.649 100.525 174.595 99.0548 174.604 97.2148L174.63 91.2149C174.645 87.8749 175.656 85.1993 177.665 83.1881C179.694 81.157 182.399 80.1489 185.778 80.1637C189.178 80.1787 191.874 81.2105 193.865 83.2593C195.856 85.288 196.844 87.9724 196.83 91.3124L196.819 93.7123L188.719 93.6768L188.73 91.2768C188.734 90.3768 188.477 89.6557 187.959 89.1134C187.442 88.5511 186.703 88.2679 185.743 88.2637C184.783 88.2594 184.042 88.5362 183.519 89.0939C182.997 89.6316 182.734 90.3505 182.73 91.2505L182.703 97.2504C182.701 97.7704 182.719 98.1805 182.758 98.4807C182.797 98.7808 182.896 99.0213 183.055 99.202C183.234 99.3828 183.533 99.5541 183.953 99.7159C184.372 99.8578 184.951 100.04 185.69 100.264C188.467 101.116 190.613 101.845 192.131 102.452C193.648 103.039 194.735 103.673 195.392 104.356C196.049 105.039 196.435 105.931 196.551 107.031C196.686 108.112 196.749 109.572 196.741 111.412L196.721 116.032C196.707 119.352 195.695 122.028 193.686 124.059C191.677 126.09 188.972 127.098 185.572 127.083ZM212.504 127.022C210.364 127.012 208.506 126.544 206.93 125.617C205.374 124.67 204.17 123.365 203.317 121.701C202.464 120.037 202.043 118.096 202.052 115.876L202.107 103.516C202.116 101.296 202.555 99.3576 203.422 97.7014C204.29 96.0252 205.505 94.7305 207.069 93.8174C208.653 92.9043 210.515 92.4525 212.655 92.4619C215.875 92.476 218.421 93.5072 220.292 95.5554C222.183 97.5838 223.121 100.268 223.107 103.608L223.071 111.708L208.611 111.644L208.641 104.744L215.601 104.775L215.609 102.975C215.613 102.075 215.356 101.354 214.839 100.812C214.321 100.249 213.582 99.966 212.622 99.9618C211.662 99.9576 210.921 100.234 210.399 100.792C209.876 101.33 209.613 102.049 209.609 102.949L209.55 116.508C209.546 117.408 209.803 118.14 210.32 118.702C210.838 119.244 211.577 119.517 212.537 119.522C213.497 119.526 214.238 119.259 214.76 118.721C215.283 118.164 215.546 117.435 215.55 116.535L215.555 115.335L223.055 115.368L223.052 115.968C223.038 119.288 222.076 121.964 220.167 123.995C218.278 126.027 215.724 127.036 212.504 127.022ZM238.519 127.136C236.379 127.126 234.521 126.658 232.945 125.731C231.389 124.784 230.185 123.479 229.332 121.815C228.48 120.152 228.058 118.21 228.068 115.99L228.122 103.63C228.132 101.41 228.57 99.4718 229.438 97.8156C230.305 96.1394 231.521 94.8447 233.085 93.9316C234.669 93.0185 236.531 92.5667 238.671 92.5761C241.891 92.5902 244.436 93.6214 246.307 95.6697C248.198 97.698 249.137 100.382 249.122 103.722L249.119 104.322L241.619 104.289L241.625 103.089C241.629 102.189 241.372 101.468 240.854 100.926C240.337 100.363 239.598 100.08 238.638 100.076C237.678 100.072 236.937 100.349 236.414 100.906C235.892 101.444 235.629 102.163 235.625 103.063L235.565 116.623C235.561 117.523 235.818 118.254 236.336 118.816C236.853 119.358 237.592 119.632 238.552 119.636C239.512 119.64 240.253 119.373 240.775 118.836C241.298 118.278 241.561 117.549 241.565 116.649L241.57 115.449L249.07 115.482L249.068 116.082C249.053 119.402 248.091 122.078 246.182 124.109C244.293 126.141 241.739 127.15 238.519 127.136ZM261.794 127.238C260.494 127.232 259.235 126.937 258.018 126.351C256.821 125.766 255.835 124.722 255.062 123.218C254.288 121.695 253.908 119.523 253.92 116.703L254.023 93.4235L261.522 93.4564L261.42 116.736C261.416 117.636 261.673 118.367 262.191 118.93C262.708 119.472 263.447 119.745 264.407 119.749C265.367 119.754 266.108 119.487 266.631 118.949C267.153 118.391 267.416 117.663 267.42 116.763L267.522 93.4828L275.022 93.5157L274.877 126.515L267.377 126.482L267.4 121.443L268.712 123.188C268.086 124.466 267.192 125.462 266.029 126.177C264.886 126.892 263.474 127.245 261.794 127.238ZM281.951 126.546L282.096 93.5468L289.596 93.5797L289.572 98.9797L288.199 97.3536C288.865 95.9365 289.8 94.8906 291.003 94.2159C292.206 93.5212 293.597 93.1773 295.177 93.1842L296.677 93.1908L296.644 100.691L292.564 100.673C291.604 100.669 290.864 100.885 290.342 101.323C289.82 101.741 289.557 102.4 289.553 103.3L289.451 126.579L281.951 126.546ZM300.056 126.626L300.201 93.6263L307.701 93.6592L307.556 126.659L300.056 126.626ZM300.212 91.2263L300.246 83.4264L307.746 83.4593L307.711 91.2592L300.212 91.2263ZM326.944 127.164C323.744 127.15 321.198 126.219 319.306 124.37C317.414 122.522 316.475 119.938 316.49 116.618L316.56 100.598L311.16 100.574L311.191 93.6745L316.591 93.6982L316.625 85.8983L324.125 85.9313L324.091 93.7312L330.391 93.7588L330.36 100.659L324.06 100.631L323.99 116.651C323.986 117.551 324.243 118.282 324.76 118.844C325.278 119.387 326.017 119.66 326.977 119.664L330.277 119.679L330.244 127.179L326.944 127.164ZM337.686 137.591L340.613 126.804L331.698 93.7646L339.858 93.8004L345.334 117.525L343.714 117.518L349.158 93.8412L357.318 93.8771L345.246 137.624L337.686 137.591ZM386.331 127.965C382.951 127.95 380.256 126.918 378.245 124.869C376.254 122.82 375.265 120.136 375.28 116.816L375.388 92.0964C375.403 88.7564 376.415 86.0808 378.424 84.0696C380.453 82.0385 383.157 81.0304 386.537 81.0452C389.937 81.0602 392.633 82.092 394.624 84.1408C396.615 86.1695 397.603 88.8539 397.588 92.1939L397.578 94.5939L389.478 94.5583L389.488 92.1583C389.492 91.2583 389.235 90.5372 388.718 89.9949C388.2 89.4326 387.461 89.1494 386.501 89.1452C385.541 89.141 384.8 89.4177 384.278 89.9754C383.755 90.5131 383.492 91.232 383.488 92.132L383.38 116.852C383.376 117.752 383.633 118.483 384.15 119.045C384.668 119.587 385.407 119.861 386.367 119.865C387.327 119.869 388.068 119.602 388.59 119.065C389.113 118.507 389.376 117.778 389.38 116.878L389.398 112.618L385.618 112.602L385.654 104.502L397.534 104.554L397.48 116.914C397.465 120.234 396.453 122.909 394.444 124.94C392.435 126.972 389.731 127.98 386.331 127.965ZM411.734 127.896C410.434 127.891 409.175 127.595 407.958 127.01C406.76 126.424 405.775 125.38 405.002 123.877C404.228 122.353 403.848 120.182 403.86 117.362L403.962 94.0819L411.462 94.1148L411.36 117.395C411.356 118.295 411.613 119.026 412.131 119.588C412.648 120.13 413.387 120.404 414.347 120.408C415.307 120.412 416.048 120.145 416.571 119.607C417.093 119.05 417.356 118.321 417.36 117.421L417.462 94.1412L424.962 94.1741L424.817 127.174L417.317 127.141L417.34 122.101L418.652 123.847C418.026 125.124 417.132 126.12 415.969 126.835C414.826 127.55 413.414 127.904 411.734 127.896ZM438.367 128.013C435.667 128.001 433.611 127.152 432.198 125.466C430.806 123.76 430.115 121.607 430.127 119.007C430.133 117.507 430.359 116.238 430.803 115.2C431.248 114.162 431.832 113.294 432.555 112.598C433.298 111.881 434.121 111.274 435.023 110.778C436.045 110.203 437.098 109.728 438.179 109.352C439.261 108.957 440.263 108.571 441.184 108.195C442.106 107.799 442.848 107.323 443.411 106.765C443.993 106.208 444.286 105.479 444.29 104.579L444.293 103.979C444.297 103.079 444.04 102.358 443.522 101.816C443.005 101.253 442.266 100.97 441.306 100.966C440.346 100.962 439.605 101.238 439.082 101.796C438.56 102.334 438.297 103.053 438.293 103.953L438.285 105.753L430.785 105.72L430.79 104.52C430.805 101.18 431.767 98.504 433.676 96.4924C435.585 94.4607 438.139 93.4519 441.339 93.466C443.479 93.4754 445.327 93.9435 446.883 94.8703C448.459 95.7973 449.673 97.1026 450.526 98.7864C451.378 100.45 451.8 102.392 451.79 104.612L451.691 127.292L444.191 127.259L444.213 122.099L445.526 123.785C444.9 125.162 443.965 126.218 442.722 126.952C441.499 127.667 440.047 128.021 438.367 128.013ZM440.858 121.124C441.698 121.128 442.469 120.881 443.171 120.384C443.873 119.887 444.227 118.999 444.233 117.719L444.253 113.099C443.731 113.557 443.089 113.914 442.328 114.171C441.567 114.407 440.786 114.724 439.984 115.12C439.182 115.497 438.59 115.924 438.208 116.402C437.826 116.861 437.634 117.43 437.631 118.11C437.627 118.89 437.894 119.591 438.432 120.213C438.969 120.816 439.778 121.119 440.858 121.124ZM458.316 127.321L458.461 94.3212L465.961 94.3541L465.937 99.7541L464.565 98.128C465.231 96.7109 466.165 95.665 467.368 94.9903C468.571 94.2956 469.963 93.9517 471.543 93.9586L473.043 93.9652L473.01 101.465L468.93 101.447C467.97 101.443 467.229 101.66 466.707 102.097C466.185 102.515 465.922 103.174 465.918 104.074L465.816 127.354L458.316 127.321ZM483.738 128.212C482.438 128.207 481.179 127.911 479.962 127.326C478.764 126.741 477.779 125.696 477.006 124.193C476.232 122.669 475.852 120.498 475.864 117.678L475.924 104.118C475.936 101.298 476.336 99.1297 477.122 97.6132C477.909 96.0966 478.904 95.0609 480.106 94.5062C481.329 93.9316 482.59 93.6471 483.89 93.6528C485.57 93.6602 486.978 94.0264 488.115 94.7514C489.272 95.4565 490.158 96.4604 490.772 97.7631L489.444 99.4973L489.519 82.4574L497.019 82.4904L496.821 127.49L489.321 127.457L489.344 122.417L490.656 124.163C490.03 125.44 489.136 126.436 487.973 127.151C486.83 127.866 485.418 128.22 483.738 128.212ZM486.351 120.724C487.311 120.728 488.052 120.461 488.575 119.924C489.097 119.366 489.36 118.637 489.364 117.737L489.424 104.177C489.428 103.277 489.171 102.556 488.653 102.014C488.136 101.452 487.397 101.168 486.437 101.164C485.477 101.16 484.736 101.437 484.213 101.994C483.691 102.532 483.428 103.251 483.424 104.151L483.364 117.711C483.36 118.611 483.617 119.342 484.135 119.904C484.652 120.446 485.391 120.72 486.351 120.724Z" fill="#ACF5FF"/>
<g id="Group 4">
<g id="Vector 1" filter="url(#filter0_ddddd_0_1)">
<path d="M336.5 613.5C492.5 545.5 576.5 418 546 190.5C468.002 174.6 373 151.5 336.5 123.5C304.5 149.5 215.131 169.404 129 190.5C100.01 391.876 172 546.5 336.5 613.5Z" fill="#3C62C5"/>
<path d="M336.5 613.5C492.5 545.5 576.5 418 546 190.5C468.002 174.6 373 151.5 336.5 123.5C304.5 149.5 215.131 169.404 129 190.5C100.01 391.876 172 546.5 336.5 613.5Z" stroke="black" stroke-width="3"/>
</g>
</g>
<path id="Vector 3" d="M143 204C222.491 185.909 265.663 172.959 339.5 143.5L339 595C200 553 111.5 396.5 143 204Z" fill="#2F618E" stroke="black"/>
<path id="Vector 9" d="M143 204C222.491 185.909 265.663 172.959 339.5 143.5L339 595C200 553 111.5 396.5 143 204Z" fill="#1C3751"/>
<path id="Vector 6" d="M620.5 519.5C407.151 611.935 271.292 610.834 55.5 519.5C121.808 625.598 204 680.5 349 687.5C478.221 670.674 546.314 624.621 620.5 519.5Z" fill="#183F8A" stroke="black"/>
<g id="Group 5">
<g id="Group 3_2">
<g id="Group 2">
<g id="Group 1_2">
<g id="Group 4_2">
<path id="G" d="M359.55 341.65H468.45V376.75L444.15 380.8L439.65 461.8C434.85 471.1 428.1 480.55 419.4 490.15C410.7 499.45 402.3 507.4 394.2 514H301.95C297.15 513.4 290.7 511 282.6 506.8C274.8 502.6 266.7 497.5 258.3 491.5C249.9 485.2 242.55 478.75 236.25 472.15C229.95 465.25 225.9 459.1 224.1 453.7L236.25 252.1C239.25 247 243.45 241 248.85 234.1C254.55 226.9 260.7 220 267.3 213.4C273.9 206.5 279.9 200.8 285.3 196.3C307.2 192.1 330.6 190 355.5 190C380.7 190 404.25 193.3 426.15 199.9C430.35 203.8 434.55 208.9 438.75 215.2C442.95 221.2 446.25 226.6 448.65 231.4L442.35 297.55C437.25 299.35 430.5 300.4 422.1 300.7C413.7 300.7 406.5 300.1 400.5 298.9L394.2 242.65C378.6 241.45 361.95 241.3 344.25 242.2C326.85 242.8 310.8 245.2 296.1 249.4C291.6 263.8 287.85 280.9 284.85 300.7C282.15 320.2 280.35 340.45 279.45 361.45C278.55 382.15 278.55 401.8 279.45 420.4C280.65 439 282.75 454.6 285.75 467.2L392.85 449.2V401.95L352.8 377.2L359.55 341.65Z" fill="#E9FEFD"/>
</g>
</g>
</g>
</g>
</g>
<g id="Vector 7">
<path d="M135.5 615L102.5 542L151 581.5H232L334 637.5L443 581.5L506.5 595.5L573 542L506.5 637.5L443 581.5L334 685L232 581.5L135.5 615Z" fill="#39B8D4"/>
<path d="M232 581.5L135.5 615L102.5 542L151 581.5H232ZM232 581.5L334 685L443 581.5M232 581.5L334 637.5L443 581.5M443 581.5L506.5 637.5L573 542L506.5 595.5L443 581.5Z" stroke="#625783"/>
</g>
<g id="Vector 8">
<path d="M135.5 615L102.5 542L151 581.5H232L334 637.5L443 581.5L506.5 595.5L573 542L506.5 637.5L443 581.5L334 685L232 581.5L135.5 615Z" fill="#39B8D4"/>
<path d="M232 581.5L135.5 615L102.5 542L151 581.5H232ZM232 581.5L334 685L443 581.5M232 581.5L334 637.5L443 581.5M443 581.5L506.5 637.5L573 542L506.5 595.5L443 581.5Z" stroke="#625783"/>
</g>
</g>
</g>
</g>
<defs>
<filter id="filter0_ddddd_0_1" x="117.233" y="121.589" width="440.465" height="501.539" filterUnits="userSpaceOnUse" color-interpolation-filters="sRGB">
<feFlood flood-opacity="0" result="BackgroundImageFix"/>
<feColorMatrix in="SourceAlpha" type="matrix" values="0 0 0 0 0 0 0 0 0 0 0 0 0 0 0 0 0 0 127 0" result="hardAlpha"/>
<feOffset dy="4"/>
<feGaussianBlur stdDeviation="2"/>
<feComposite in2="hardAlpha" operator="out"/>
<feColorMatrix type="matrix" values="0 0 0 0 0 0 0 0 0 0 0 0 0 0 0 0 0 0 0.25 0"/>
<feBlend mode="normal" in2="BackgroundImageFix" result="effect1_dropShadow_0_1"/>
<feColorMatrix in="SourceAlpha" type="matrix" values="0 0 0 0 0 0 0 0 0 0 0 0 0 0 0 0 0 0 127 0" result="hardAlpha"/>
<feOffset dy="4"/>
<feGaussianBlur stdDeviation="2"/>
<feComposite in2="hardAlpha" operator="out"/>
<feColorMatrix type="matrix" values="0 0 0 0 0 0 0 0 0 0 0 0 0 0 0 0 0 0 0.25 0"/>
<feBlend mode="normal" in2="effect1_dropShadow_0_1" result="effect2_dropShadow_0_1"/>
<feColorMatrix in="SourceAlpha" type="matrix" values="0 0 0 0 0 0 0 0 0 0 0 0 0 0 0 0 0 0 127 0" result="hardAlpha"/>
<feOffset dy="4"/>
<feGaussianBlur stdDeviation="2"/>
<feComposite in2="hardAlpha" operator="out"/>
<feColorMatrix type="matrix" values="0 0 0 0 0 0 0 0 0 0 0 0 0 0 0 0 0 0 0.25 0"/>
<feBlend mode="normal" in2="effect2_dropShadow_0_1" result="effect3_dropShadow_0_1"/>
<feColorMatrix in="SourceAlpha" type="matrix" values="0 0 0 0 0 0 0 0 0 0 0 0 0 0 0 0 0 0 127 0" result="hardAlpha"/>
<feOffset dy="4"/>
<feGaussianBlur stdDeviation="2"/>
<feComposite in2="hardAlpha" operator="out"/>
<feColorMatrix type="matrix" values="0 0 0 0 0 0 0 0 0 0 0 0 0 0 0 0 0 0 0.25 0"/>
<feBlend mode="normal" in2="effect3_dropShadow_0_1" result="effect4_dropShadow_0_1"/>
<feColorMatrix in="SourceAlpha" type="matrix" values="0 0 0 0 0 0 0 0 0 0 0 0 0 0 0 0 0 0 127 0" result="hardAlpha"/>
<feOffset dy="4"/>
<feGaussianBlur stdDeviation="2"/>
<feComposite in2="hardAlpha" operator="out"/>
<feColorMatrix type="matrix" values="0 0 0 0 0 0 0 0 0 0 0 0 0 0 0 0 0 0 0.25 0"/>
<feBlend mode="normal" in2="effect4_dropShadow_0_1" result="effect5_dropShadow_0_1"/>
<feBlend mode="normal" in="SourceGraphic" in2="effect5_dropShadow_0_1" result="shape"/>
</filter>
</defs>
</svg>
